# xmcd
# 
# Track frame offsets:
#     150
#     25211
#     38960
#     52593
#     61007
#     76004
#     86825
#     99420
#     111251
#     120273
#     141245
#     155940
#     171691
#     190650
#     205957
#     220184
# 
# Disc length: 3092
# 
# Revision: 1
# Processed by: cddbd v1.5.2PL0 Copyright (c) Steve Scherf et al.
# Submitted via: BonkEnc v1.0.8
# 
DISCID=d70c1210
DTITLE=Country No.1 - Jak chcete žít bez koní
DYEAR=2007
DGENRE=Country
TTITLE0=Jak chcete žít bez koní
TTITLE1=Prokletý buick
TTITLE2=Cizinec
TTITLE3=Jižní vlak
TTITLE4=Ještě je čas
TTITLE5=Muži ženou svý stáda
TTITLE6=Zrada
TTITLE7=Nech si ty svý city
TTITLE8=Socha svobody
TTITLE9=Kdo jsem já
TTITLE10=Whisky pro štěstí
TTITLE11=Já mám rád knedlíky
TTITLE12=Červená řeka - Pod tou skálou...
TTITLE13=Chtěl bych být medvídkem
TTITLE14=Co s tebou (Rose Garden)
TTITLE15=Okoř
EXTD=
EXTT0=
EXTT1=
EXTT2=
EXTT3=
EXTT4=
EXTT5=
EXTT6=
EXTT7=
EXTT8=
EXTT9=
EXTT10=
EXTT11=
EXTT12=
EXTT13=
EXTT14=
EXTT15=
PLAYORDER=
